<?xml version="1.0" encoding="utf-8"?>
<!-- Generator: Adobe Illustrator 16.0.0, SVG Export Plug-In . SVG Version: 6.00 Build 0)  -->
<!DOCTYPE svg PUBLIC "-//W3C//DTD SVG 1.1//EN" "http://www.w3.org/Graphics/SVG/1.1/DTD/svg11.dtd">
<svg version="1.1" xmlns="http://www.w3.org/2000/svg" xmlns:xlink="http://www.w3.org/1999/xlink" x="0px" y="0px" width="50px"
	 height="50px" viewBox="0 0 50 50" enable-background="new 0 0 50 50" xml:space="preserve">
<g id="hammer" display="none">
	<path display="inline" fill-rule="evenodd" clip-rule="evenodd" fill="#212C65" d="M0,7.874v6.412h12.5V44.62
		c0,2.969,2.385,5.378,5.357,5.38c1.486,0,2.989-0.601,3.958-1.573c0.977-0.975,1.398-2.388,1.398-3.87V14.285h10.715V0H11.244
		C11.241-0.001,0,7.874,0,7.874z M50,33.338c0-2.049-1.144-3.826-2.825-4.734l-0.746-14.318l2.821-5.027L48.067,0h-6.892
		l-1.187,9.258l2.867,5.027L42.065,28.6c-0.461,0.25-0.858,0.563-1.225,0.931c-0.973,0.976-1.556,2.321-1.556,3.804V44.62
		c0,2.969,2.39,5.378,5.36,5.38c1.482,0,2.818-0.601,3.792-1.573C49.411,47.452,50,46.105,50,44.623V33.338L50,33.338z"/>
</g>
<g id="Layer_2" display="none">
	<path display="inline" fill-rule="evenodd" clip-rule="evenodd" fill="#212C65" d="M47.991,15.167
		C45.462,9.263,40.729,4.53,34.822,2.004C31.809,0.717,28.488,0,25.003,0c-3.487,0-6.808,0.718-9.817,2.005
		C9.277,4.53,4.541,9.263,2.012,15.167C0.722,18.185,0,21.508,0,25c0,3.485,0.718,6.801,2.002,9.811
		c2.529,5.916,7.269,10.655,13.18,13.184c3.013,1.291,6.333,2.005,9.821,2.005c3.485,0,6.806-0.714,9.822-2.005
		c5.911-2.528,10.647-7.268,13.176-13.184C49.288,31.801,50,28.484,50,25C50,21.508,49.285,18.185,47.991,15.167z M25.003,3.703
		c1.957,0,3.879,0.262,5.737,0.782l-0.941,6.78c-1.503-0.526-3.117-0.813-4.796-0.813c-1.681,0-3.292,0.287-4.795,0.813l-0.941-6.78
		C21.121,3.965,23.043,3.703,25.003,3.703z M11.279,29.785l-6.793,0.941C3.969,28.875,3.707,26.957,3.707,25
		c0-1.963,0.266-3.889,0.785-5.748l6.787,0.942c-0.526,1.5-0.813,3.118-0.813,4.796C10.466,26.666,10.752,28.281,11.279,29.785z
		 M25.003,46.299c-1.96,0-3.885-0.265-5.74-0.784l0.945-6.801c1.503,0.526,3.115,0.813,4.795,0.813c1.679,0,3.293-0.286,4.796-0.813
		l0.945,6.801C28.885,46.034,26.963,46.299,25.003,46.299z M25.003,35.715c-5.918,0-10.717-4.8-10.717-10.715
		s4.799-10.714,10.717-10.714c5.919,0,10.711,4.798,10.711,10.714S30.922,35.715,25.003,35.715z M45.521,30.727l-6.798-0.941
		c0.527-1.504,0.816-3.119,0.816-4.796c0-1.678-0.289-3.296-0.816-4.796l6.791-0.942C46.038,21.111,46.3,23.036,46.3,25
		C46.3,26.957,46.038,28.875,45.521,30.727z"/>
</g>
<g id="Layer_3" display="none">
	<path display="inline" fill-rule="evenodd" clip-rule="evenodd" fill="#212C65" d="M25-0.004c-13.809,0-25.001,11.192-25.001,25
		c0,13.807,11.193,25,25.001,25c13.807,0,24.999-11.192,24.999-25C49.999,11.188,38.807-0.004,25-0.004z M37.497,28.571h-8.929V37.5
		h-7.144v-8.929h-8.929v-7.144h8.929V12.5h7.144v8.928h8.929V28.571z"/>
</g>
<g id="Layer_4" display="none">
	<path display="inline" fill-rule="evenodd" clip-rule="evenodd" fill="#212C65" d="M45.49,4.512
		C39.516-1.461,29.883-1.51,23.968,4.403c-3.973,3.976-5.727,10.143-4.325,15.24L0,39.195V50h8.928v-5.357h5.357v-5.357h5.357
		v-5.356h7.142l3.572-3.571c5.085,1.381,11.275-0.363,15.241-4.327C51.51,20.121,51.461,10.486,45.49,4.512z M37.5,16.25
		c-2.142-0.002-3.879-1.739-3.879-3.878c-0.003-2.143,1.737-3.878,3.879-3.882c2.142,0.003,3.878,1.735,3.878,3.882
		C41.378,14.511,39.642,16.25,37.5,16.25z"/>
</g>
<g id="Layer_5" display="none">
	<path display="inline" fill-rule="evenodd" clip-rule="evenodd" fill="#212C65" d="M26.786,0L13.131,13.654l23.214,23.215
		L50,23.214L26.786,0z M6.935,46.22c-0.436,0.438-1.008,0.655-1.578,0.655c-0.572,0-1.142-0.218-1.58-0.655
		c-0.872-0.87-0.872-2.283,0-3.153c0.436-0.436,1.008-0.655,1.578-0.655c0.572,0,1.144,0.22,1.58,0.655
		C7.806,43.937,7.806,45.35,6.935,46.22z M5.357,21.429l5.016,11.056l-8.929,8.929c-1.786,1.786-2.06,5.085,0,7.143
		C2.436,49.55,3.716,50,4.977,50c1.355,0,2.686-0.52,3.61-1.444l8.928-8.928l11.056,5.015l6.512-6.512L11.869,14.917L5.357,21.429z"
		/>
</g>
<g id="Layer_6">
	<path fill="#212C65" d="M21.428,23.214h-5.357v-5.357h5.357V23.214z M21.428,30.357h-5.357V25h5.357V30.357z M14.286,23.214H8.928
		v-5.357h5.357V23.214z M14.286,30.357H8.928V25h5.357V30.357z M0,19.643v30.356h33.929V19.643L16.071,0L0,19.643z M35.715,49.999
		H50V19.643H35.715V49.999z M35.715,17.857H50L44.643,12.5V0H37.5v5.357L32.143,0h-12.5l16.072,17.679V17.857z"/>
</g>
</svg>
